<?xml version="1.0" encoding="UTF-8" standalone="no"?>
<!-- Created with Inkscape (http://www.inkscape.org/) -->

<svg
   xmlns:dc="http://purl.org/dc/elements/1.1/"
   xmlns:cc="http://creativecommons.org/ns#"
   xmlns:rdf="http://www.w3.org/1999/02/22-rdf-syntax-ns#"
   xmlns:svg="http://www.w3.org/2000/svg"
   xmlns="http://www.w3.org/2000/svg"
   xmlns:sodipodi="http://sodipodi.sourceforge.net/DTD/sodipodi-0.dtd"
   xmlns:inkscape="http://www.inkscape.org/namespaces/inkscape"
   width="21.709124cm"
   height="3.808075cm"
   viewBox="0 0 769.2209 134.93179"
   id="svg4239"
   version="1.1"
   inkscape:version="0.91 r13725"
   sodipodi:docname="logo.svg">
  <defs
     id="defs4241" />
  <sodipodi:namedview
     id="base"
     pagecolor="#ffffff"
     bordercolor="#666666"
     borderopacity="1.0"
     inkscape:pageopacity="0.0"
     inkscape:pageshadow="2"
     inkscape:zoom="1.4142136"
     inkscape:cx="467.74525"
     inkscape:cy="-22.509155"
     inkscape:document-units="px"
     inkscape:current-layer="layer1"
     showgrid="false"
     fit-margin-top="1"
     fit-margin-left="1"
     fit-margin-right="1"
     fit-margin-bottom="1"
     inkscape:window-width="1920"
     inkscape:window-height="1027"
     inkscape:window-x="0"
     inkscape:window-y="0"
     inkscape:window-maximized="1"
     units="cm" />
  <metadata
     id="metadata4244">
    <rdf:RDF>
      <cc:Work
         rdf:about="">
        <dc:format>image/svg+xml</dc:format>
        <dc:type
           rdf:resource="http://purl.org/dc/dcmitype/StillImage" />
        <dc:title></dc:title>
      </cc:Work>
    </rdf:RDF>
  </metadata>
  <g
     inkscape:label="Layer 1"
     inkscape:groupmode="layer"
     id="layer1"
     transform="translate(7.4675888,-130.61058)">
    <g
       id="g4795">
      <path
         d="m 387.31451,181.72845 -0.0234,37.28715 7.77877,0.0699 0.30206,-30.30486 7.98016,0 c 7.98015,0 10.64019,5.32009 10.64019,10.6402 0.062,8.81755 -0.17915,13.8356 -0.052,19.70188 l 9.14872,0.0261 c 0.0879,-7.94823 -0.11349,-13.87243 -0.0136,-19.7279 0.14154,-10.78176 -9.0088,-18.32982 -19.53388,-18.07905 z m 128.33766,1.559 0,8.12699 c -2.54868,-1.05815 -4.85003,-1.61523 -7.22142,-2.1443 -2.37139,-0.52907 -4.92721,-0.63593 -7.03265,-0.63593 -2.26058,0 -5.21454,0.1289 -6.32267,0.70206 -1.08596,0.55111 -1.86699,1.48969 -1.86699,2.65805 0,0.94792 1.20351,2.22726 2.02353,2.73428 0.84217,0.50702 3.211,0.88178 5.36076,1.12428 l 2.09436,0.2976 c 6.09469,0.77156 10.19477,2.03912 12.30021,3.80268 2.10544,1.76357 3.15816,4.53018 3.15816,8.2998 0,3.94598 -1.46272,6.91098 -4.38818,8.895 -2.92546,1.98401 -7.29148,2.97602 -13.09806,2.97602 -2.46004,0 -5.00873,-0.1984 -7.64608,-0.59521 -2.61518,-0.37476 -5.30792,-0.94791 -8.07824,-1.71948 l 0,-8.28466 c 2.45073,0.75214 4.79818,1.29653 7.28039,1.86968 2.50437,0.57316 5.04198,0.85975 7.61283,0.85975 2.32707,0 5.98232,0.0743 7.15693,-0.56475 1.17462,-0.6393 2.31737,-1.82373 2.31737,-3.08028 0,-1.05814 -0.56871,-2.15607 -1.38872,-2.66308 -0.79786,-0.52908 -5.10254,-1.25225 -7.51826,-1.53883 l -3.76071,-0.50105 c -3.9479,-0.66135 -7.02532,-1.88482 -9.15292,-3.67043 -2.12761,-1.78561 -3.11206,-3.78756 -3.11206,-7.42492 0,-3.92394 1.82802,-7.14918 4.05574,-8.72966 2.69321,-1.91071 6.84824,-2.84376 12.4332,-2.84376 2.19408,0 4.49898,0.16535 6.91471,0.49601 2.41571,0.33067 5.04197,0.84871 7.87877,1.55414 z m -57.78035,-0.31276 0,8.17986 c -2.5487,-1.06503 -4.85003,-1.62574 -7.22143,-2.15825 -2.37138,-0.53251 -4.92721,-0.64006 -7.03264,-0.64006 -2.26059,0 -5.21455,0.12974 -6.32267,0.70662 -1.08597,0.55471 -1.867,1.49938 -1.867,2.67536 0,0.95408 1.20351,2.24174 2.02353,2.75206 0.84217,0.51033 3.21099,0.88753 5.36076,1.13158 l 2.09436,0.29955 c 6.0947,0.77658 10.19477,2.05239 12.30021,3.82743 2.10544,1.77504 3.15816,4.55964 3.15816,8.3538 0,3.97165 -1.46272,6.95595 -4.38818,8.95287 -2.92546,1.99692 -7.29148,2.99538 -13.09806,2.99538 -2.46004,0 -5.00873,-0.19969 -7.64607,-0.59908 -2.61518,-0.3772 -5.30793,-0.95408 -8.07825,-1.73066 l 0,-8.33856 c 2.45074,0.75702 4.79819,1.30495 7.2804,1.88185 2.50436,0.57688 5.04197,0.86532 7.61282,0.86532 2.32707,0 5.98233,0.0748 7.15694,-0.56842 1.17461,-0.64345 2.31736,-1.83559 2.31736,-3.10032 0,-1.06502 -0.5687,-2.17009 -1.38872,-2.68041 -0.79785,-0.53252 -5.10254,-1.2604 -7.51826,-1.54884 l -3.76071,-0.5043 c -3.9479,-0.66565 -7.02532,-1.89709 -9.15292,-3.69432 -2.1276,-1.79723 -3.11205,-3.8122 -3.11205,-7.47323 0,-3.94947 1.82801,-7.19569 4.05574,-8.78645 2.6932,-1.92315 6.84823,-2.86227 12.43319,-2.86227 2.19408,0 4.49899,0.16642 6.9147,0.49923 2.41573,0.33283 5.04198,0.85425 7.87879,1.56426 z m 137.21303,-0.91212 -3.43541,7.70186 c -3.15673,-0.0191 -5.75395,-0.0224 -11.70944,-0.0224 -7.57236,0 -10.09655,5.11961 -10.09655,10.23923 -0.0589,8.48528 0.17004,13.31425 0.0495,18.95946 l -8.68137,0.025 c -0.0833,-7.6487 0.10774,-13.34969 0.0127,-18.98447 -0.13428,-10.37548 8.61912,-17.9187 18.60931,-17.9187 z m 53.26889,-3.8645 0.13315,-7.11932 -8.43688,2.03803 -0.14283,5.08129 z m 23.33013,3.56185 c -10.52805,0 -19.75322,7.83859 -19.61165,18.62035 0.17759,10.77908 10.00924,19.13251 20.05327,19.42253 10.25923,0.0657 14.53568,-4.42441 14.53568,-4.42441 0,0 -1.24612,-2.24083 -2.47821,-5.34401 -6.94092,1.89646 -7.90285,2.87257 -12.47106,2.4138 -6.33246,-1.08846 -10.48373,-5.86029 -10.55603,-12.06791 0,-5.32011 4.15654,-10.74124 10.6402,-10.6402 2.26034,0.10172 5.95766,1.3e-4 9.63332,3.48301 2.04616,-1.92339 3.64384,-3.33242 6.08279,-5.32219 -6.45541,-5.07333 -9.23251,-6.03995 -15.82831,-6.14097 z m 36.80424,-0.73919 c -10.5281,0 -19.75215,7.83859 -19.61064,18.62035 0.14158,10.78175 9.83245,19.1575 19.89532,19.22094 10.06287,0.0634 14.25798,-4.27379 14.25798,-4.27379 0,0 -1.22362,-2.16438 -2.43214,-5.16171 -6.80813,1.83176 -7.75064,2.7743 -12.23144,2.33117 -4.4808,-0.44314 -8.60665,-3.99641 -9.96706,-7.19874 9.73516,-2.72605 19.16051,-4.61112 27.92011,-7.20594 -0.27675,-11.84674 -11.23632,-16.23125 -17.83213,-16.33228 z m -0.8668,7.17914 c 4.24767,-0.36351 8.05431,2.32258 9.28634,4.64969 -5.00223,1.44304 -13.1655,3.32812 -19.69656,5.24973 1.07291,-4.3814 4.97685,-9.43447 10.41022,-9.89942 z m -168.30754,-7.1425 c -10.52571,0 -19.74768,8.08992 -19.60617,19.21738 0.14151,11.12748 9.83022,19.77178 19.89081,19.83724 10.0606,0.0654 14.25476,-4.41081 14.25476,-4.41081 0,0 -1.22337,-2.23378 -2.43158,-5.32721 -6.80658,1.89048 -7.74892,2.86323 -12.22869,2.4059 -4.47978,-0.45735 -8.60474,-4.12453 -9.96482,-7.42956 9.73298,-2.81345 19.15622,-4.75897 27.91382,-7.43697 -0.27667,-12.22661 -11.2338,-16.75171 -17.82813,-16.85597 z m -0.8666,7.40932 c 4.24671,-0.37516 8.05248,2.39706 9.28425,4.79878 -5.00107,1.48932 -13.16253,3.43483 -19.69212,5.41806 1.07269,-4.52189 4.97577,-9.73696 10.40787,-10.21684 z m -171.51251,-7.37703 c -10.52578,0 -19.74784,8.08101 -19.60633,19.1962 0.14152,11.11521 9.83029,19.74998 19.89097,19.81538 10.06069,0.0654 14.25487,-4.40596 14.25487,-4.40596 0,0 -1.22337,-2.23132 -2.4316,-5.32133 -6.80663,1.8884 -7.74896,2.86008 -12.22878,2.40324 -4.47982,-0.45683 -8.60482,-4.11997 -9.9649,-7.42136 9.73306,-2.81035 19.15638,-4.75374 27.91404,-7.42879 -0.27667,-12.21311 -11.23389,-16.73323 -17.82827,-16.83738 z m -0.86662,7.40116 c 4.24676,-0.37474 8.05257,2.39442 9.28434,4.79349 -5.00111,1.48767 -13.16265,3.43104 -19.69227,5.41208 1.07269,-4.5169 4.9758,-9.72623 10.40793,-10.20557 z m 273.77737,-6.60847 8.56349,0 0,37.65606 -8.56349,0 z m -42.75191,0.38228 13.30024,37.24071 c 3.53288,0.12502 6.97434,0.0563 10.53008,0.0165 l 13.30026,-37.2407 -9.24889,0 c 0,0 -6.44663,21.29511 -9.23596,30.69778 -2.68544,-9.43352 -9.39791,-30.71441 -9.39791,-30.71441 z m -284.22804,36.98004 0,-51.06026 9.18126,-2.14076 0,32.37864 14.62408,-16.12361 c 2.78218,-0.11951 6.55233,-0.11951 10.37495,-0.037 l -14.55901,17.96214 15.35974,18.76288 c -3.91881,-0.14253 -7.3796,0.0576 -10.18217,0.0576 l -11.4986,-13.9008 -3.91881,4.31918 0,9.78181 z M 289.851,180.34126 c -10.52466,0 -19.74573,8.20224 -19.60423,19.48417 0.1415,11.28194 9.82924,20.04625 19.88884,20.11262 10.05961,0.0664 14.25333,-4.47205 14.25333,-4.47205 0,0 -1.22323,-2.26478 -2.43133,-5.40117 -6.80591,1.91674 -7.74814,2.90301 -12.22748,2.4393 -4.47933,-0.46369 -8.60388,-4.18177 -9.96383,-7.53269 9.73202,-2.8525 19.15433,-4.82503 27.91105,-7.54021 -0.27664,-12.39633 -11.23268,-16.98425 -17.82635,-17.08997 z m -0.86653,7.51219 c 4.2463,-0.38037 8.0517,2.43033 9.28334,4.86541 -5.00057,1.50998 -13.16123,3.48249 -19.69016,5.49326 1.07258,-4.58467 4.97527,-9.87214 10.40682,-10.35867 z m -48.0659,-6.24694 0,8.12169 8.00957,0 c 0,0 0.14156,14.2617 0.14156,22.24185 0,2.50792 2.86152,6.05898 5.17854,7.01872 4.09594,1.69659 12.63908,-0.49274 12.63908,-0.49274 l -0.0985,-7.82606 c 0,0 -4.76287,1.35661 -7.22043,0.33864 -1.15852,-0.47986 -2.37696,-1.40609 -2.37696,-2.66005 0,-5.3201 -0.2831,-18.62036 -0.2831,-18.62036 l 9.92498,-0.19709 -5.2e-4,-7.83859 -9.92424,0.0555 -0.043,-10.62737 -7.93714,2.75935 0,7.86802 z m -20.71591,-0.29611 c -10.86439,-0.31858 -21.51214,9.12803 -20.61753,20.342 0.44023,11.79208 13.03476,20.19308 24.22204,17.9791 10.43933,-1.30103 19.13362,-11.85734 16.81227,-22.44353 -1.71123,-9.45341 -11.05063,-16.02588 -20.41678,-15.87757 z m 1.10664,8.68696 c 7.16106,0.2385 12.92387,8.56994 9.23021,15.11323 -3.99571,8.32875 -17.72424,7.90747 -21.12253,-0.71835 -3.3313,-7.5959 4.17707,-15.43311 11.89232,-14.39488 z m -67.68766,-7.70456 -0.14156,36.98149 -7.8386,0 -0.2831,-29.28443 -7.98016,0 c -7.98014,0 -10.6402,5.3201 -10.6402,10.64021 0,5.32009 2.66006,10.6402 10.6402,10.6402 l 2.91374,0 2.40637,7.98014 -7.95074,0 c -10.66962,0 -16.95116,-7.8386 -17.0927,-18.62034 -0.14155,-10.78177 9.08313,-18.62036 19.6112,-18.62036 z m 5.67153,-0.0644 0,47.8809 7.98016,-2.54791 0,-37.35284 7.98015,0 c 7.98015,0 10.64021,5.32011 10.64021,10.6402 0,5.32011 -2.66006,10.64021 -10.64021,10.64021 l -5.3201,0 2.30211,7.98015 5.64863,0 c 10.66962,0 16.95116,-7.83861 17.0927,-18.62036 0.14154,-10.78176 -9.08313,-18.62035 -19.6112,-18.62035 z"
         style="font-style:normal;font-variant:normal;font-weight:bold;font-stretch:normal;font-size:134.57652283px;line-height:125%;font-family:sans-serif;-inkscape-font-specification:'sans-serif Bold';letter-spacing:-59.21366501px;word-spacing:0px;fill:#000000;fill-opacity:1;stroke:none;stroke-width:1px;stroke-linecap:butt;stroke-linejoin:miter;stroke-opacity:1"
         id="path4593-6-3-3-8-0-6"
         inkscape:connector-curvature="0" />
      <path
         inkscape:connector-curvature="0"
         id="rect5484-36"
         d="m 71.111224,169.25088 0,0.002 0,0.003 c -0.08895,0 -0.178455,0.003 -0.267468,0.003 -5.445458,0.0929 -10.676999,3.23502 -13.429335,7.91698 -2.752334,-4.68199 -7.983849,-7.82416 -13.42932,-7.91698 -0.177909,-0.003 -0.354786,-0.005 -0.53238,-0.003 -5.507135,0.091 -10.821742,3.34402 -13.487921,8.15389 -3.408667,6.29374 -2.18551,14.24631 1.607339,20.0854 5.986043,8.4786 14.359475,14.83513 22.319379,21.33867 0.939465,0.67172 1.904674,1.8137 3.059308,2.11934 0.371061,0.0907 0.582227,0.0914 0.929761,0 2.33543,-1.22408 2.312776,-1.81725 1.844237,-2.69757 -0.991685,-1.89557 -1.206789,-2.37484 -1.179401,-2.62117 0.02739,-0.24633 0.428069,-0.86245 0.863533,-1.32969 0.354081,-0.37986 1.220444,-0.91352 1.602253,-0.98579 0.06613,-0.0131 0.119518,-0.023 0.170669,-0.023 0.153846,-0.003 0.285089,0.0608 0.641908,0.26492 0.286915,0.16422 1.016714,0.63785 1.620082,1.04948 0.75441,0.51476 0.992793,0.67043 1.207416,0.72598 1.194542,0.2908 3.979417,-2.10537 4.017082,-2.8173 0.02073,-0.39236 -0.354928,-0.77246 -0.542565,-1.131 -0.991686,-1.89561 -1.206789,-2.37738 -1.179401,-2.62371 0.02739,-0.24638 0.428069,-0.86247 0.863533,-1.32968 0.354068,-0.37988 1.220444,-0.91099 1.60224,-0.98327 0.06613,-0.0131 0.122061,-0.023 0.173225,-0.023 0.15382,-0.003 0.282532,0.0606 0.639365,0.26493 0.286901,0.16416 1.014144,0.6378 1.617525,1.04948 0.75441,0.51474 1.399331,0.66742 2.987981,-0.87372 1.068386,-1.03646 1.288928,-1.17559 0.476337,-2.70522 -1.003709,-1.8893 -0.872622,-1.90503 -0.886448,-2.15247 -0.01383,-0.2475 0.277342,-0.92143 0.62918,-1.45451 0.286026,-0.43338 1.051809,-1.1033 1.416298,-1.23799 0.063,-0.0232 0.115057,-0.0421 0.165569,-0.0509 0.03795,-0.008 0.07433,-0.0103 0.114628,-0.008 0.12077,0.006 0.271068,0.0566 0.560408,0.16303 0.310194,0.11425 1.107003,0.45844 1.770366,0.76419 0.829415,0.38228 1.093518,0.49782 1.3144,0.5171 0.568611,0.27333 3.137221,-3.29244 2.190675,-3.90755 -1.747425,-1.23423 -2.158592,-1.56166 -2.246717,-1.79329 -0.08804,-0.23171 -0.01121,-0.96228 0.163026,-1.57677 0.320733,-0.70853 0.734168,-1.69367 1.546211,-1.77292 1.363882,-0.13321 3.572477,0.87874 3.810744,0.33115 1.515222,-4.79394 1.433905,-10.10317 -0.988346,-14.57557 -2.666192,-4.80991 -7.980799,-8.06537 -13.487908,-8.15644 -0.08882,-0.003 -0.178573,-0.002 -0.267468,-0.002 z m 16.914025,29.80332 c -0.06965,0.003 -0.141976,0.006 -0.221612,0.0128 -0.106163,0.008 -0.222838,0.0194 -0.354082,0.0357 -0.933242,0.11425 -1.130323,0.2294 -1.352612,0.78457 -0.208427,0.52044 -1.013779,3.04322 -1.006175,3.15355 0.01044,0.1363 -0.493763,0.51867 -0.871176,0.65975 -0.25067,0.0938 -0.470926,0.12847 -0.754005,0.11711 -0.387965,-0.0147 -0.429713,-0.0372 -1.495255,-0.76419 -0.603369,-0.41165 -1.333168,-0.88273 -1.620082,-1.04693 -0.475791,-0.27223 -0.545879,-0.29196 -0.810034,-0.242 -0.381822,0.0723 -1.250741,0.60597 -1.604796,0.98581 -0.435464,0.46724 -0.833589,1.08328 -0.86099,1.32969 -0.02739,0.24629 0.187729,0.723 1.1794,2.61862 l 0.552765,1.05458 -0.05095,0.37191 c -0.05947,0.44783 -0.289626,0.90997 -0.596078,1.19723 -0.210917,0.19773 -0.296422,0.22606 -1.332229,0.42283 -1.653221,0.31401 -2.528662,0.51815 -2.725598,0.63938 -0.215899,0.13297 -0.468917,0.72811 -0.573149,1.33988 -0.132522,0.77831 0.02341,1.96598 0.303138,2.28747 0.151445,0.17396 0.964348,0.48154 2.460673,0.93486 1.359813,0.41196 1.383276,0.42385 1.676124,0.89154 0.219408,0.35048 0.256265,0.46728 0.28784,0.88901 l 0.03567,0.48654 -0.461066,0.65465 c -0.253604,0.36133 -0.735967,1.09153 -1.074959,1.62262 -0.542996,0.85066 -0.616241,0.99617 -0.598608,1.23035 0.02387,0.31844 0.434968,1.0877 0.825319,1.54365 0.345969,0.40415 1.229365,1.00927 1.523284,1.04184 0.245792,0.0273 1.293062,-0.4487 2.822397,-1.28383 1.211862,-0.66179 1.075206,-0.63117 1.612438,-0.36172 0.256278,0.12847 0.57465,0.27533 0.70815,0.32606 l 0.244539,0.0917 0.196141,1.12845 c 0.256904,1.455 0.57165,2.836 0.692864,3.04657 0.120379,0.20909 0.5055,0.3928 1.156473,0.55276 0.393233,0.0968 0.657298,0.1136 1.153916,0.0789 0.892552,-0.0625 1.26484,-0.1799 1.441769,-0.45851 0.14083,-0.22185 0.699737,-1.82585 1.021474,-2.92938 0.149397,-0.51236 0.210461,-0.62114 0.466152,-0.84825 0.403211,-0.35818 0.726969,-0.5104 1.169202,-0.54768 0.271928,-0.0231 0.421365,-8.8e-4 0.547665,0.0815 0.09586,0.0628 0.60766,0.40755 1.136101,0.7642 1.659247,1.1199 1.97604,1.29518 2.297659,1.2711 0.444033,-0.0334 1.373077,-0.62185 1.836595,-1.16412 0.521266,-0.60985 0.729306,-0.98781 0.703046,-1.28128 -0.0224,-0.24838 -0.46858,-1.20585 -1.202312,-2.57786 -0.405872,-0.75886 -0.425356,-0.81595 -0.41521,-1.20233 0.01422,-0.53864 0.251622,-1.09778 0.57568,-1.36025 0.219016,-0.17741 0.362402,-0.22283 1.166662,-0.37445 1.60622,-0.30279 2.751723,-0.57647 2.903923,-0.69286 0.18,-0.13773 0.44076,-0.80416 0.54513,-1.39592 0.0573,-0.3272 0.0542,-0.61255 -0.0102,-1.13099 -0.10787,-0.87445 -0.20028,-1.07349 -0.56804,-1.25328 -0.27143,-0.13267 -1.806783,-0.65509 -2.906473,-0.98835 -0.40222,-0.12182 -0.54718,-0.2062 -0.718333,-0.40758 -0.324958,-0.38227 -0.431043,-0.57772 -0.499266,-0.9272 -0.0969,-0.49676 -0.03711,-0.76433 0.275098,-1.20741 0.475831,-0.67518 1.121661,-1.64869 1.472331,-2.22379 0.39551,-0.64858 0.40196,-0.79533 0.0637,-1.4596 -0.31912,-0.62655 -0.85023,-1.20762 -1.457052,-1.59971 -0.399885,-0.2584 -0.554578,-0.3214 -0.743806,-0.30567 -0.260752,0.0214 -1.584164,0.64965 -2.975238,1.41375 l -0.873719,0.47889 -0.471252,-0.24962 c -0.258808,-0.13718 -0.586244,-0.2905 -0.725977,-0.34135 -0.253592,-0.0922 -0.251401,-0.0913 -0.333697,-0.59352 -0.265485,-1.61931 -0.672609,-3.44954 -0.820233,-3.69103 -0.126378,-0.20659 -0.778668,-0.47939 -1.403555,-0.58842 -0.184091,-0.0322 -0.356494,-0.047 -0.565495,-0.0408 z"
         style="opacity:1;fill:#056faa;fill-opacity:1;stroke:none;stroke-width:5;stroke-miterlimit:4;stroke-dasharray:none;stroke-dashoffset:0;stroke-opacity:1" />
    </g>
  </g>
</svg>
